<svg xmlns="http://www.w3.org/2000/svg" viewBox="0 0 186 185.94"><defs><style>.cls-1{fill:#fff;}</style></defs><title>Exp1</title><g id="Capa_2" data-name="Capa 2"><g id="Nosotros"><path class="cls-1" d="M150.15,185.94a18.78,18.78,0,0,1-3.06-3.21c-9.61-16.55-18.74-33.36-25.8-51.19a82.77,82.77,0,0,1-4.25-13.49c-2.36-11.37,1-21.3,8.81-29.67a34.52,34.52,0,0,1,46.06-4A34.1,34.1,0,0,1,185.7,107.9a5.52,5.52,0,0,0,.3.94v6.09c-.17.7-.37,1.39-.51,2.09-1.8,8.89-5.39,17.15-9.11,25.35a453.38,453.38,0,0,1-21.26,40.48,18.53,18.53,0,0,1-2.93,3.11Zm-18.37-73.72A19.34,19.34,0,1,0,151.34,93,19.37,19.37,0,0,0,131.79,112.22Z"/><path class="cls-1" d="M0,24c.78-2.62,1.25-5.39,2.39-7.85C6.88,6.4,14.58.8,25.23.08s19.05,3.64,24.84,12.7c4.76,7.46,5.29,15.34,2.18,23.58-3.52,9.32-8.35,17.95-13.53,26.4-2.53,4.13-5.21,8.16-7.87,12.2-2.21,3.35-5.17,3.39-7.38.1C16.88,65.29,10.51,55.38,5.6,44.66,3.35,39.73,1.85,34.47,0,29.36Zm15.53,3.14A11.61,11.61,0,1,0,27,15.48,11.6,11.6,0,0,0,15.53,27.09Z"/><path class="cls-1" d="M130.2,185.94c-3.44-.46-6.9-.86-10.33-1.4a3.79,3.79,0,0,1-3.42-3.79,3.65,3.65,0,0,1,2.78-3.74,7.55,7.55,0,0,1,2.33,0c4.36.38,8.72.86,13.09,1.16,2.62.18,4.15,1,4.66,2.81.57,2.06-.25,3.58-2.69,5Z"/><path class="cls-1" d="M88.51,130.38a3.78,3.78,0,0,1,3.82,3.52c.64,5,1.27,9.91,1.93,14.87a4,4,0,0,1-3.16,4.63,3.8,3.8,0,0,1-4.44-3.18c-.66-3.93-1.15-7.89-1.68-11.84-.17-1.28-.31-2.57-.36-3.86A3.81,3.81,0,0,1,88.51,130.38Z"/><path class="cls-1" d="M91.47,118.4a4.31,4.31,0,0,1-3.85,4.15,3.93,3.93,0,0,1-4.1-3.62q-1-7.17-2-14.34c-.4-2.72.65-4.54,3-5s4.15.85,4.61,3.53C90,108.19,90.68,113.3,91.47,118.4Z"/><path class="cls-1" d="M109.89,174.67c0,3.55-3.17,5.33-5.81,3.77A30.78,30.78,0,0,1,93.66,168.3c-.42-.66-.86-1.31-1.27-2a3.86,3.86,0,0,1,1-5.37,3.62,3.62,0,0,1,5.3,1,32,32,0,0,0,9.83,10.27.69.69,0,0,1,.25.22C109.23,173.36,109.67,174.23,109.89,174.67Z"/><path class="cls-1" d="M64.54,79.46c-.05-3.45,2.81-5.43,5.4-4.12A24.57,24.57,0,0,1,78.7,82c1.36,1.76,2.79,3.47,4.16,5.22a3.58,3.58,0,0,1-.57,4.48,3.75,3.75,0,0,1-5.07.38,3.54,3.54,0,0,1-.91-1c-2.31-4-5.76-6.66-9.65-8.89A3.7,3.7,0,0,1,64.54,79.46Z"/><path class="cls-1" d="M46,69.67c3.08.27,5.38.42,7.67.69,2.49.3,3.89,1.73,3.92,3.86a3.6,3.6,0,0,1-3.62,3.85c-4-.13-8-.4-12-.74a3.59,3.59,0,0,1-3.15-3.45,3.52,3.52,0,0,1,2.87-4A30.54,30.54,0,0,1,46,69.67Z"/></g></g></svg>