<svg xmlns="http://www.w3.org/2000/svg" viewBox="0 0 174 186.32"><defs><style>.cls-1{fill:#fff;}</style></defs><title>Exp2</title><g id="Capa_2" data-name="Capa 2"><g id="Nosotros"><path class="cls-1" d="M97.72,186.32c-.06-15.71-.15-31.42-.16-47.13a18.88,18.88,0,0,1,3.54-11.73,14.51,14.51,0,0,1,12.09-6.16q22.61-.1,45.22,0c8.24,0,13.88,6.05,15.24,13.45a25.7,25.7,0,0,1,.33,4.59q0,21.72,0,43.44c0,1.19-.05,2.37-.08,3.56Z"/><path class="cls-1" d="M139.39,0V49.11h-10.6c0-.37,0-1,0-1.53,0-11.7,0-23.41,0-35.11,0-1.5-.39-1.92-1.91-1.92q-57,.06-114,0H10.63V139.82H87.48v10.43H.07c0-.56-.07-1.09-.07-1.62Q0,75.05,0,1.48C0,1,.06.49.1,0Z"/><path class="cls-1" d="M135.91,58.71a28.92,28.92,0,1,1-29,28.76A28.9,28.9,0,0,1,135.91,58.71Z"/><path class="cls-1" d="M113.51,34.89v11H25.7c0-1.55,0-3.07,0-4.58,0-1.74,0-3.47,0-5.21,0-.91.31-1.28,1.21-1.19.34,0,.69,0,1,0h85.58Z"/><path class="cls-1" d="M106.45,112.58c-1.8.83-3.58,1.69-5.39,2.47a4.81,4.81,0,0,1-1.85.4q-36,0-72,0c-1.26,0-1.6-.4-1.57-1.61.07-3.06,0-6.13,0-9.38.67,0,1.24-.08,1.81-.08q36.13,0,72.27,0a2.27,2.27,0,0,1,2.3,1.35C103.42,108.09,105,110.32,106.45,112.58Z"/><path class="cls-1" d="M25.71,80.67c0-3.52,0-6.88,0-10.23,0-.26.5-.61.84-.73a3.61,3.61,0,0,1,1.18,0h73.58c-1,2.61-2,5-2.77,7.5-1.1,3.48-1,3.5-4.76,3.5H25.71Z"/></g></g></svg>