<svg xmlns="http://www.w3.org/2000/svg" viewBox="0 0 211.37 148.58"><defs><style>.cls-1{fill:#fff;}</style></defs><title>Exp4</title><g id="Capa_2" data-name="Capa 2"><g id="Nosotros"><path class="cls-1" d="M211.37,124.3c-1.14,1.64-2.73,2-4.67,2-6.92-.09-13.84-.1-20.76,0-1.66,0-2.19-.54-2.52-2.06a24.52,24.52,0,0,0-25.64-19.15,24,24,0,0,0-18.84,11,21,21,0,0,0-3.61,8.62c-.19,1.22-.76,1.61-2,1.61q-23-.07-45.92,0c-1.23,0-1.74-.32-2-1.6a23.34,23.34,0,0,0-6.07-11.64,18,18,0,0,0-1.68-1.42l.2-.42h46.06c0-.91.1-1.61.1-2.31q0-41.27,0-82.55a11,11,0,0,1,.54-4A5.59,5.59,0,0,1,130,18.78c9.73-.06,19.47-.2,29.2.07,8.79.24,15.39,4.57,20.22,11.87,5.55,8.39,11.25,16.67,16.88,25A26.23,26.23,0,0,1,201,70.95c-.08,12.72,0,25.43,0,38.15v2c2.22,0,4.29.08,6.35,0a4,4,0,0,1,4.09,2.06Zm-51.9-62.21h18.22A3.37,3.37,0,0,0,181,60.41c.71-1.31.31-2.44-.51-3.59-4.57-6.46-9.15-12.92-13.64-19.44a4.79,4.79,0,0,0-4.38-2.25c-6.86.05-13.72,0-20.58,0-3.15,0-4.16,1-4.16,4.12q0,9.28,0,18.55c0,3.18,1.07,4.25,4.24,4.26C147.78,62.1,153.62,62.09,159.47,62.09Z"/><path class="cls-1" d="M0,113.16a4.19,4.19,0,0,1,4.09-2.06c13,.05,26.08,0,39.12,0H45c-4.47,4.32-7.33,9.15-8.27,15.15H34.85c-10.06,0-20.12,0-30.18,0-1.94,0-3.52-.38-4.66-2Z"/><path class="cls-1" d="M61.24,102H11.78c-3.49,0-4.36-.88-4.36-4.41,0-29.15.07-58.29-.06-87.44A9.85,9.85,0,0,1,17.59,0C46.85.13,76.1.06,105.36.06c6.29,0,10,3.63,10,9.92q0,44,0,87.95c0,3.14-1,4.1-4.16,4.1Z"/><path class="cls-1" d="M42.52,129.6a18.77,18.77,0,0,1,18.91-18.46c10.35.19,18.78,8.77,18.52,18.86a18.72,18.72,0,1,1-37.43-.41Zm9.4.27a9.22,9.22,0,0,0,9.43,9.31,9.33,9.33,0,0,0,9.24-9.38,9.33,9.33,0,0,0-18.67.07Z"/><path class="cls-1" d="M140.74,129.78a18.7,18.7,0,1,1,18.58,18.8A18.7,18.7,0,0,1,140.74,129.78Zm18.82-9.26a9.33,9.33,0,1,0-.19,18.66,9.33,9.33,0,1,0,.19-18.66Z"/></g></g></svg>