<svg xmlns="http://www.w3.org/2000/svg" viewBox="0 0 200.89 180.65"><defs><style>.cls-1{fill:#fff;}</style></defs><title>Exp5</title><g id="Capa_2" data-name="Capa 2"><g id="Nosotros"><path class="cls-1" d="M200.89,49.12c-3.69.24-6.29-1.19-8.76-2.76A50.16,50.16,0,0,1,186.33,42c-1.26-1.09-2.2-1-3.53-.12-4,2.69-8.12,5.23-12.19,7.82-3,1.92-3,1.92-5.77-1.13l13.21-12.45c-2.69-2.39-5.12-4.71-7.76-6.78a3.54,3.54,0,0,0-3-.24A32.77,32.77,0,0,0,162.72,32l-3.22-2.36c5-3.82,9.51-7.76,10.67-14.27,2.68,1,3.78,2.12,2.65,5-1.65,4.15-1.44,4.24,2.36,6.61,1.06.67,2.14,1.31,3.2,2s2.09,1.36,3.45,2.26l8.43-16.48,3.53,2.13c-1.57,5.44-3.05,10.91-4.76,16.29-.67,2.11-.48,3.35,1.46,4.79a89.28,89.28,0,0,1,8.76,7.9C200,46.49,200.23,47.71,200.89,49.12Z"/><polygon class="cls-1" points="147.49 7.9 144.94 12.55 157.62 19.52 160.18 14.91 147.49 7.9"/><rect class="cls-1" x="93.44" width="14.11" height="4.89"/><polygon class="cls-1" points="12.7 156.36 20.17 168.77 24.7 166.03 17.22 153.63 12.7 156.36"/><polygon class="cls-1" points="42.02 20.18 44.76 24.68 57.16 17.23 54.42 12.7 42.02 20.18"/><polygon class="cls-1" points="14.91 50.6 7.89 63.28 12.52 65.83 19.52 53.15 14.91 50.6"/><rect class="cls-1" y="103.39" width="4.89" height="14.09"/><polygon class="cls-1" points="7.72 129.17 2.65 130.65 6.69 144.56 11.74 143.03 7.72 129.17"/><polygon class="cls-1" points="133.61 8.96 134.87 3.82 120.85 0.32 119.57 5.45 133.61 8.96"/><polygon class="cls-1" points="22.55 38.91 25.27 42.26 35.65 32.89 32.87 29.78 22.55 38.91"/><polygon class="cls-1" points="66.26 6.69 67.68 11.77 81.6 7.73 80.13 2.67 66.26 6.69"/><path class="cls-1" d="M3.84,75.91,3.55,77C3,79,2.53,81,2,83s-1,3.94-1.46,6l-.25,1,5.09,1.28,3.5-14.05Z"/><path class="cls-1" d="M100.5,24.79h-.35A76.84,76.84,0,0,0,45.51,47.42,78,78,0,0,0,100,180.65h.4a77.77,77.77,0,0,0,54.83-22.51,76.57,76.57,0,0,0,23.2-54.58C178.57,59.58,144.36,25,100.5,24.79ZM115.29,172.1a71.06,71.06,0,0,1-15.39,1.7,69.67,69.67,0,0,1-37.73-11.12,71.27,71.27,0,0,1-31.31-45.35,5.9,5.9,0,0,1,1.78-6,53.54,53.54,0,0,0,5.15-6.72l1-1.4a2.59,2.59,0,0,0,.41-1.72c-.06-.28-.12-.58-.17-.88-.24-1.27-.54-2.86-1.22-3.38-.44-.21-2.32.44-3.13.72l-.65.22a6.8,6.8,0,0,0-1.75,1.09c-.37.28-.77.58-1.23.89l-1.65,1.11.09-2a71.29,71.29,0,0,1,3.68-19.56c.34-1,.73-2,1.13-3l.19-.49c.72-1.88,1.61-4.23,5-4.29a6,6,0,0,0,3.33-1.87c5.86-5.64,11.58-11.32,17-16.86a4.71,4.71,0,0,0,.8-1.92l.09-.33-.16-.06c-.87-.32-1.7-.62-2.54-.86A4.83,4.83,0,0,0,56.84,50c-.32,0-.68,0-1.1,0l-2.42-.11,1.8-1.63.83-.77a14.13,14.13,0,0,1,1.38-1.21c21.17-15.39,44.46-18.64,69.21-9.66l.3.11c1.49.53,3.75,1.33,3.53,4.34-.24,3.26-2.7,4-4.5,4.55l-1.2.36c-6.13,1.85-12.47,3.77-18.62,5.87a30.46,30.46,0,0,0-5.83,3l-.61.37a2,2,0,0,0-.66,1,2.68,2.68,0,0,0,1.18.63,16.2,16.2,0,0,0,2.41.3c.61,0,1.21.09,1.81.18a4.11,4.11,0,0,1,3.06,1.61,4.22,4.22,0,0,1,0,3.54c-1,3-2.4,4.78-4.27,5.45s-4.18.16-7-1.59a12.69,12.69,0,0,0-9.69-1.13,12.39,12.39,0,0,0-7.91,5.55A3.34,3.34,0,0,0,79,72.62,5.4,5.4,0,0,0,80,74c.29.32.62.67,1,1.09l.94,1.12-1.38.47-1.49.48a21.26,21.26,0,0,0-2.62.95,4.71,4.71,0,0,0-1.06.79,3.24,3.24,0,0,0,1,.8c2.46,1,5.88-.3,8.11-3,.41-.5.78-1,1.18-1.58a22.33,22.33,0,0,1,1.65-2.14,6.22,6.22,0,0,1,4.36-2.35,6,6,0,0,1,4.38,2,18.68,18.68,0,0,1,2.23,2.8c.4.57.78,1.12,1.19,1.63.68.84,1.34,1.7,2,2.56A59.27,59.27,0,0,0,106.93,86a3.26,3.26,0,0,0,2.55,1.19c.77-.16,1.52-1,2.1-2.42.46-1.11.86-2.3,1.25-3.44.47-1.38,1-2.81,1.56-4.18a6.43,6.43,0,0,1,3.55-3.56,6.73,6.73,0,0,1,5.24.36,3.52,3.52,0,0,1,2.16,2.19,3.23,3.23,0,0,1-.69,2.75,35.55,35.55,0,0,1-2.29,2.78l-.92,1a6.47,6.47,0,0,0-1.12,1.53c0,.26,1,1.18,1.64,1.79l.81.76-.84.72c-.35.3-.68.62-1,.94a11.9,11.9,0,0,1-2.56,2.05c-2.88,1.55-5.87,3-8.76,4.41L107,96.2a7,7,0,0,1-7-.48L97.5,94.25a65.83,65.83,0,0,0-9.6-5,30.73,30.73,0,0,0-11.38-2.32c-9.34.21-15.49,6.58-16,16.63-.59,10.65,4.12,17.07,14.4,19.61,1.76.43,3.58.79,5.34,1.13,1.59.31,3.23.63,4.84,1,7.35,1.74,10.33,5.15,11.41,13.05A153.45,153.45,0,0,0,100,157.24a21.82,21.82,0,0,0,4.79,8.24,6.8,6.8,0,0,0,5.53,2.52,6.27,6.27,0,0,0,4.78-3.07c3.29-5.08,5.21-9.29,6.07-13.22a91,91,0,0,1,16.26-35.94,4.33,4.33,0,0,0,.48-.86l-.76.11c-1.54.23-3,.44-4.52.68-.46.07-.92.18-1.38.29a11.34,11.34,0,0,1-3.1.42c-1.63-.08-3.75-.45-4.55-1.72a6.38,6.38,0,0,1-.27-5.2c1.21-3.09,4.15-4.77,8.09-4.61,7.8.31,15.72.83,23.38,1.33l3.21.21c3,.19,5,1.83,6,5a23.65,23.65,0,0,0,3.56,6.82,5.19,5.19,0,0,1,.85,5.37C159.42,150,141.56,166.28,115.29,172.1Z"/></g></g></svg>