<svg xmlns="http://www.w3.org/2000/svg" viewBox="0 0 144.41 138.07"><defs><style>.cls-1{fill:#606060;}</style></defs><title>LinkedIn</title><g id="Capa_2" data-name="Capa 2"><g id="Home"><path class="cls-1" d="M50,138V45c.43,0,.82-.06,1.2-.06,9.43,0,18.86,0,28.28,0,1.17,0,1.44.36,1.42,1.47-.07,3.74,0,7.49,0,11.55,1.11-1.46,2-2.7,3-3.89A29.09,29.09,0,0,1,104.1,43a38.08,38.08,0,0,1,21.2,3.33,30.21,30.21,0,0,1,13.47,13c4.27,7.79,5.58,16.27,5.61,25,.06,17.55,0,35.11,0,52.66,0,.27,0,.55-.05.9H113.43v-1.52q0-23.73,0-47.45a35.73,35.73,0,0,0-1.73-12.23c-2.38-6.62-8-10.09-15-9.48-7.78.68-12.55,5.1-15,12.16a23.83,23.83,0,0,0-.77,7.48c-.06,16.53,0,33.06,0,49.58,0,1.54,0,1.54-1.53,1.55H50Z"/><path class="cls-1" d="M32.7,138H31.5c-9.42,0-18.85,0-28.27,0-1.09,0-1.38-.3-1.38-1.38q0-45.19,0-90.37c0-1.05.23-1.41,1.36-1.41,9.42,0,18.85,0,28.27,0,.38,0,.77,0,1.22.06Z"/><path class="cls-1" d="M17.27,32.24C11.17,32.13,6,30.17,2.52,24.83-2.66,16.79.08,4.35,11.28,1c5.95-1.76,11.78-1.43,17,2.22s7.17,9,6.37,15.21S30.31,28.88,24.45,31a56.18,56.18,0,0,1-7.11,1.57Z"/></g></g></svg>