<svg xmlns="http://www.w3.org/2000/svg" viewBox="0 0 150 150.16"><defs><style>.cls-1{isolation:isolate;}.cls-2{fill:#ddd;}.cls-12,.cls-3{fill:#f4f4f4;}.cls-4{fill:#d3002e;mix-blend-mode:multiply;}.cls-5{fill:#002f3a;}.cls-6{fill:#e5e5e5;}.cls-7{fill:#f7f7f7;}.cls-8{fill:#ed3a58;}.cls-9{fill:#e2344a;}.cls-10{fill:#006a6d;}.cls-11{fill:#005c64;}.cls-12{opacity:0.8;}</style></defs><title>Logo Granportuaria</title><g class="cls-1"><g id="Capa_2" data-name="Capa 2"><g id="Capa_1-2" data-name="Capa 1"><path class="cls-2" d="M53,80.95l-.58,1.29a4.18,4.18,0,0,0-.12,3.22,4.08,4.08,0,0,0,2,2.16A216.54,216.54,0,0,0,90.55,100.7c18.13,4.54,42.45,8.33,53.52-.35,0,0,3-1.8,4.13-9.23,0,0,5.1-16.23-1.86-39s-23.62-35.41-30.42-39.83-17.74,2.08-26.41,12S68.49,47.91,53,80.95Z"/><path class="cls-3" d="M52.59,86a4.23,4.23,0,0,0,1.77,1.63,224.68,224.68,0,0,0,43.34,14.8c22.47,4.93,40.34,4.33,47.79-3.58S139,76.53,132.14,71.33,120,62.49,119.08,62a10.26,10.26,0,0,1-3.15-3.74s.79,3.65,10.26,10.33,17.2,14.31,19.88,21.59S146,105.84,126,106.95,78.5,100,58.09,91C58.09,91,54.11,89.08,52.59,86Z"/><path class="cls-4" d="M45.11,101.44l.8-2.47a3.93,3.93,0,0,1,2.24-2.24,4,4,0,0,1,3.5.25s12.1,5.4,22.51,8.89,29.89,8.91,46.72,8.68,20.93-5.38,22.37-8.65a80.05,80.05,0,0,1-12.13,18.73c-8.21,9.52-19.12,17.91-38,23.1s-35.72,1.06-46.71-3.27c0,0-7.89-.62-6.72-18.69C39.7,125.78,41.46,111.72,45.11,101.44Z"/><path class="cls-5" d="M37.64,78.83l1,.61A4,4,0,0,0,41.6,80a3.89,3.89,0,0,0,3-2.42c.48-1,7.75-17.27,14.49-27.69S76.63,22.42,89.81,12.45c0,0,9.59-8.37,16.8-5.35,0,0-13.9-6.31-26.24-6.84S59.47,1,48.46,5A75.14,75.14,0,0,0,8.17,40.9S3.88,46,10,55.42,31.19,75.17,37.64,78.83Z"/><path class="cls-6" d="M36.26,89.08a4.25,4.25,0,0,1,1.93,2.36,4,4,0,0,1,0,2.42s-5.15,15-6.14,25-.52,18.21,5.63,21.38a77.32,77.32,0,0,1-27.94-28c-11.33-19.47-11.86-42-6.23-60,0,0-5,10,17.47,26.9C21,79,31.14,86.25,36.26,89.08Z"/><path class="cls-7" d="M116.24,49.84l-.6,2a9.33,9.33,0,0,0,.3,6.44A8.93,8.93,0,0,0,119.08,62,124.6,124.6,0,0,1,137.2,75.76C145,83.23,148,89.4,147.27,94.93a74.69,74.69,0,0,0,.51-37.74,75.51,75.51,0,0,0-31.86-44.92S125.85,17.46,116.24,49.84Z"/><path class="cls-8" d="M120.34,74.05l-1.25-.81a9,9,0,0,0-8-1.13c-4.39,1.57-7.15,5.71-8.57,8.59s-10,19.54-18.08,31.06c0,0-17.28,25.46-31.72,31.31,0,0-15,7.88-14.32-16.35a101.05,101.05,0,0,1,4.42-22.88s2.59-6.16,5.3-7.1a4.1,4.1,0,0,0-2.47,2.94s-5.67,17.14-6.1,29.09,4.57,17.18,11.13,15.82,14.46-6,30-25.33c0,0,9.45-11.34,19.1-30,0,0,4.83-9.52,6.11-12.31C106,76.89,111.42,67.45,120.34,74.05Z"/><path class="cls-9" d="M105.24,78.48a17.76,17.76,0,0,1,2.12-3.78,8.7,8.7,0,0,1,5.32-3c2.28-.29,4-.4,9.15,3.37,0,0,15.37,9.72,21.07,21.85a12.19,12.19,0,0,1-.65,11.22c-3.4,6.15-12.32,22.22-29.4,31.62s-40.25,15.29-66.43,4.67c0,0,6.51,2.62,18.18-7.62s23.5-26.67,29.58-37.54S105.24,78.48,105.24,78.48Z"/><path class="cls-3" d="M115.44,56.93s-.74-1.54.42-5.68S121.58,33.66,120,20.7,106.16,6,89.49,24.32,62.94,60.08,53.66,79.56a35.45,35.45,0,0,0-1.47,3.27,4.21,4.21,0,0,0,.31,3s-2.57-3,3.11-13.78,14-27.76,30.53-46.25,33.11-23.65,32.94.11a94.07,94.07,0,0,1-2.59,17.52C114.35,51.19,114.67,55,115.44,56.93Z"/><path class="cls-10" d="M103.47,50.18a8.72,8.72,0,0,1-6.91,0c-3.69-1.62-19.09-8.61-34.82-12.11s-44.36-9-53.57,2.83c0,0-6.5,7.19,2.8,18.22S36.39,81.82,41.82,80a4,4,0,0,1-3.21-.56c-1.74-1.07-12.76-7.49-20.32-14.69S5,50.76,7.13,43c0,0,4.46-11.39,37.43-6.73S95.09,54,103.47,50.18Z"/><path class="cls-11" d="M95.34,49.64l1.22.54a8.9,8.9,0,0,0,6.06.32,8.7,8.7,0,0,0,6-6.49c.86-3.24,5.44-20.24,2.8-30.22,0,0-1.25-5.09-4.6-6.57,0,0-19.64-9.44-39.7-6.73s-35.27,10.39-48.45,25A81.79,81.79,0,0,0,8.17,40.9S12,34.48,26.93,33.73,70.32,38.06,95.34,49.64Z"/><path class="cls-12" d="M92.38,58.87l1.63.71a8.87,8.87,0,0,1,4.76,5,8.71,8.71,0,0,1-.33,7c-1.79,3.87-10.31,22.39-22,38.46s-30.25,36.36-39.84,29.59c0,0-16.08-8.21-27.62-28.7s-10.28-45-5.66-58.23c0,0,1.81-9.51,20.15-9.85S65,46.69,92.38,58.87Z"/></g></g></g></svg>