<svg xmlns="http://www.w3.org/2000/svg" viewBox="0 0 355.17 79.54"><defs><style>.cls-1{fill:#e1344a;}.cls-2,.cls-3{fill:#fff;}.cls-3{stroke:#fff;stroke-miterlimit:10;stroke-width:2px;}</style></defs><title>Rastrear Granportuaria</title><g id="Capa_2" data-name="Capa 2"><g id="Demo_de_Servicios_-_sectores" data-name="Demo de Servicios - sectores"><rect class="cls-1" x="65.73" y="12.24" width="289.44" height="56.76"/><path class="cls-2" d="M85.68,51.42v-19H93a10.07,10.07,0,0,1,2.5.3,8.11,8.11,0,0,1,2.2.92,4.48,4.48,0,0,1,1.64,1.76,5.55,5.55,0,0,1,.61,2.66A4.84,4.84,0,0,1,98.34,42a7.23,7.23,0,0,1-3.9,1.65l6.75,7.81h-2l-6.62-7.67H87.28v7.67ZM87.3,42.2h5.78a6.67,6.67,0,0,0,3.69-1,3.46,3.46,0,0,0,1.52-3.15,3.43,3.43,0,0,0-1.5-3.13,6.73,6.73,0,0,0-3.7-1H87.3Z"/><path class="cls-2" d="M102,51.42l8.46-19h1.82l8.43,19H119l-2.25-5.1H106.06l-2.28,5.1Zm4.64-6.62h9.44l-4.47-10.11q-.08-.22-.24-.6c-.11.25-.19.45-.24.6Z"/><path class="cls-2" d="M124.06,33.39a7.66,7.66,0,0,1,4.45-1.25,11,11,0,0,1,5.59,1.33v1.63a10.05,10.05,0,0,0-5.48-1.44,6.55,6.55,0,0,0-3.42.8,2.67,2.67,0,0,0-1.33,2.45,2.82,2.82,0,0,0,.64,1.86A4.65,4.65,0,0,0,126.16,40a19.06,19.06,0,0,0,2.25.87q1.23.39,2.47.84a13.58,13.58,0,0,1,2.25,1,4.74,4.74,0,0,1,1.65,1.63,4.49,4.49,0,0,1,.64,2.41,4.22,4.22,0,0,1-1,2.85A5.3,5.3,0,0,1,132,51.27a10.2,10.2,0,0,1-3.31.45,13.19,13.19,0,0,1-6.48-1.6v-1.6a12.39,12.39,0,0,0,6.37,1.68,7.85,7.85,0,0,0,3.75-.79,2.64,2.64,0,0,0,1.45-2.49,3.12,3.12,0,0,0-.64-2,4.51,4.51,0,0,0-1.65-1.32,18.91,18.91,0,0,0-2.25-.89q-1.23-.41-2.47-.85a15.15,15.15,0,0,1-2.25-1,4.63,4.63,0,0,1-1.65-1.56,4.24,4.24,0,0,1-.64-2.35A4.08,4.08,0,0,1,124.06,33.39Z"/><path class="cls-2" d="M152.12,32.44V34h-6.94V51.42h-1.6V34h-6.94V32.44Z"/><path class="cls-2" d="M155.13,51.42v-19h7.29a10.07,10.07,0,0,1,2.5.3,8.11,8.11,0,0,1,2.2.92,4.48,4.48,0,0,1,1.64,1.76,5.54,5.54,0,0,1,.61,2.66A4.84,4.84,0,0,1,167.79,42a7.23,7.23,0,0,1-3.9,1.65l6.75,7.81h-2L162,43.74h-5.29v7.67Zm1.63-9.22h5.78a6.67,6.67,0,0,0,3.69-1,3.46,3.46,0,0,0,1.52-3.15,3.43,3.43,0,0,0-1.5-3.13,6.73,6.73,0,0,0-3.7-1h-5.78Z"/><path class="cls-2" d="M186.45,32.44V34h-11v7.1h10.2v1.55h-10.2v7.24h11.2v1.55h-12.8v-19Z"/><path class="cls-2" d="M188.34,51.42l8.46-19h1.82l8.43,19h-1.74l-2.25-5.1H192.35l-2.28,5.1ZM193,44.8h9.44l-4.47-10.11q-.08-.22-.24-.6c-.11.25-.19.45-.24.6Z"/><path class="cls-2" d="M210,51.42v-19h7.29a10.07,10.07,0,0,1,2.5.3,8.11,8.11,0,0,1,2.2.92,4.48,4.48,0,0,1,1.64,1.76,5.55,5.55,0,0,1,.61,2.66A4.84,4.84,0,0,1,222.66,42a7.23,7.23,0,0,1-3.9,1.65l6.75,7.81h-2l-6.62-7.67H211.6v7.67Zm1.63-9.22h5.78a6.67,6.67,0,0,0,3.69-1,3.46,3.46,0,0,0,1.52-3.15,3.43,3.43,0,0,0-1.5-3.13,6.73,6.73,0,0,0-3.7-1h-5.78Z"/><path class="cls-2" d="M241.29,32.44q8.19,0,8.19,6.37t-8.19,6.37H238.2v6.24h-4.07v-19Zm.19,3.58H238.2V41.6h3.28q3.85,0,3.85-2.79T241.48,36Z"/><path class="cls-2" d="M265.55,32.44V36h-9.3v4h8.49v3.55h-8.49v4.23h9.46v3.58H252.18v-19Z"/><path class="cls-2" d="M276,32.44q4.88,0,7.42,2.59a9.44,9.44,0,0,1,2.54,6.9,9.44,9.44,0,0,1-2.54,6.9q-2.54,2.59-7.42,2.59h-7.1v-19Zm4.33,5.07A5.83,5.83,0,0,0,276,36h-3V47.84h3a5.83,5.83,0,0,0,4.33-1.49,6,6,0,0,0,1.48-4.42A6,6,0,0,0,280.37,37.51Z"/><path class="cls-2" d="M293.12,32.44v19h-4.07v-19Z"/><path class="cls-2" d="M304.29,32.44q4.88,0,7.42,2.59a9.44,9.44,0,0,1,2.54,6.9,9.44,9.44,0,0,1-2.54,6.9q-2.54,2.59-7.42,2.59h-7.1v-19Zm4.33,5.07A5.83,5.83,0,0,0,304.29,36h-3V47.84h3a5.83,5.83,0,0,0,4.33-1.49,6,6,0,0,0,1.48-4.42A6,6,0,0,0,308.62,37.51Z"/><path class="cls-2" d="M316.88,38.21a9.57,9.57,0,0,1,1.87-3.15,8.65,8.65,0,0,1,3.19-2.2,12.27,12.27,0,0,1,8.79,0,8.65,8.65,0,0,1,3.19,2.2,9.57,9.57,0,0,1,1.87,3.15,11.16,11.16,0,0,1,0,7.43,9.57,9.57,0,0,1-1.87,3.15,8.65,8.65,0,0,1-3.19,2.2,12.27,12.27,0,0,1-8.79,0,8.65,8.65,0,0,1-3.19-2.2,9.57,9.57,0,0,1-1.87-3.15,11.16,11.16,0,0,1,0-7.43Zm13.82-.65a6.39,6.39,0,0,0-8.76,0,6.32,6.32,0,0,0-1.54,4.37,6.32,6.32,0,0,0,1.54,4.37,6.39,6.39,0,0,0,8.76,0,6.32,6.32,0,0,0,1.54-4.37A6.32,6.32,0,0,0,330.7,37.56Z"/><circle class="cls-1" cx="39.77" cy="39.77" r="39.77"/><path class="cls-3" d="M60.14,55.78c-3.7-3.75-7.08-7.13-10.35-10.33a2.18,2.18,0,0,1-.48-2.91c3-5.89,2.7-11.55-.8-16.81a15.5,15.5,0,0,0-15.16-7.27,16.32,16.32,0,0,0-15,16.33A16.55,16.55,0,0,0,33,51.16a16.26,16.26,0,0,0,9.67-1.88l1.54-.82L47.74,52c2.68,2.69,5.34,5.35,8,8a3.08,3.08,0,0,0,3.23,1,2.92,2.92,0,0,0,2.12-2.08A3.3,3.3,0,0,0,60.14,55.78ZM35,48h-.07a13.29,13.29,0,0,1-9.44-3.85A13.23,13.23,0,0,1,34.79,21.6h0A13.21,13.21,0,0,1,35,48Z"/><path class="cls-3" d="M34.19,25.85a3.19,3.19,0,0,0-1.24.21,10.4,10.4,0,0,0-6.11,6.47,3.73,3.73,0,0,0-.11.48l0,.17v.06A1.51,1.51,0,0,0,28,34.81a2,2,0,0,0,.4,0,1.28,1.28,0,0,0,1.29-1,6.87,6.87,0,0,1,5.1-5,1.32,1.32,0,0,0,.93-1.62A1.47,1.47,0,0,0,34.19,25.85Z"/></g></g></svg>