<svg xmlns="http://www.w3.org/2000/svg" viewBox="0 0 355.17 79.54"><defs><style>.cls-1{fill:#c1374b;}.cls-2,.cls-3{fill:#fff;}.cls-3{stroke:#fff;stroke-miterlimit:10;stroke-width:2px;}</style></defs><title>Recurso 1</title><g id="Capa_2" data-name="Capa 2"><g id="Capa_1-2" data-name="Capa 1"><rect class="cls-1" x="65.73" y="12.24" width="289.44" height="56.76"/><path class="cls-2" d="M116.18,31.72v1.66h-7.43V52H107V33.38H99.62V31.72Z"/><path class="cls-2" d="M120.85,52V31.72h7.8a10.85,10.85,0,0,1,2.67.32,8.51,8.51,0,0,1,2.35,1,4.75,4.75,0,0,1,1.75,1.88,5.91,5.91,0,0,1,.66,2.85,5.16,5.16,0,0,1-1.69,4.14,7.68,7.68,0,0,1-4.17,1.77L137.44,52h-2.15l-7.08-8.21h-5.65V52Zm1.74-9.86h6.18a7.11,7.11,0,0,0,3.94-1.05,3.7,3.7,0,0,0,1.62-3.36,3.67,3.67,0,0,0-1.6-3.35,7.21,7.21,0,0,0-4-1h-6.18Z"/><path class="cls-2" d="M139.81,52l9.05-20.31h1.95l9,20.31H158l-2.41-5.46H144.11L141.67,52Zm5-7.08h10.1l-4.79-10.82c-.06-.15-.14-.37-.26-.64-.12.27-.2.49-.26.64Z"/><path class="cls-2" d="M163.2,37.44a9.31,9.31,0,0,1,2.42-3.38,11.17,11.17,0,0,1,7.22-2.66,11.65,11.65,0,0,1,5.69,1.37v1.74A9.76,9.76,0,0,0,173.11,33a9.9,9.9,0,0,0-3.3.56,10,10,0,0,0-2.9,1.64,7.52,7.52,0,0,0-2.1,2.85,9.81,9.81,0,0,0-.78,4,8.86,8.86,0,0,0,.79,3.81,7.49,7.49,0,0,0,2.12,2.73,9.75,9.75,0,0,0,2.93,1.57,10.68,10.68,0,0,0,3.32.53,9.94,9.94,0,0,0,5.54-1.48V51a12.07,12.07,0,0,1-5.89,1.4,11.31,11.31,0,0,1-3.8-.67,11.67,11.67,0,0,1-3.37-1.9,8.87,8.87,0,0,1-2.46-3.23,10.67,10.67,0,0,1-.92-4.47A11.44,11.44,0,0,1,163.2,37.44Z"/><path class="cls-2" d="M184.12,52V31.72h1.71v9.11h5.31l6.56-9.11h2l-7.11,9.89L200.37,52h-2l-7.17-9.57h-5.37V52Z"/><path class="cls-2" d="M212.18,37.9a10.2,10.2,0,0,1,2-3.36,9.23,9.23,0,0,1,3.41-2.35,13.13,13.13,0,0,1,9.4,0,9.23,9.23,0,0,1,3.41,2.35,10.2,10.2,0,0,1,2,3.36,12,12,0,0,1,0,8,10.2,10.2,0,0,1-2,3.36A9.23,9.23,0,0,1,227,51.56a13.13,13.13,0,0,1-9.4,0,9.23,9.23,0,0,1-3.41-2.35,10.2,10.2,0,0,1-2-3.36,12,12,0,0,1,0-8ZM227,37.21a6.83,6.83,0,0,0-9.37,0,6.75,6.75,0,0,0-1.65,4.67,6.78,6.78,0,0,0,1.65,4.67,6.86,6.86,0,0,0,9.37,0,6.78,6.78,0,0,0,1.65-4.67A6.75,6.75,0,0,0,227,37.21Z"/><path class="cls-2" d="M237.75,52V31.72h8.35A12.92,12.92,0,0,1,249,32a8.76,8.76,0,0,1,2.56,1.05,5,5,0,0,1,1.88,2.06,6.86,6.86,0,0,1,.68,3.19,5.82,5.82,0,0,1-4.44,6L255.79,52h-5l-5.48-7.11H242.1V52ZM242.1,41.3h4.2a4,4,0,0,0,2.45-.72,2.48,2.48,0,0,0,1-2.16,2.49,2.49,0,0,0-.95-2.17,4.06,4.06,0,0,0-2.47-.7h-4.2Z"/><path class="cls-2" d="M267.27,31.72c3.48,0,6.12.93,7.93,2.77a10.1,10.1,0,0,1,2.71,7.39,10.1,10.1,0,0,1-2.71,7.38c-1.81,1.84-4.45,2.77-7.93,2.77h-7.6V31.72Zm4.63,5.43a6.23,6.23,0,0,0-4.63-1.6H264V48.2h3.25a6.23,6.23,0,0,0,4.63-1.6,6.45,6.45,0,0,0,1.58-4.72A6.46,6.46,0,0,0,271.9,37.15Z"/><path class="cls-2" d="M296.94,31.72v3.83H287v4.32h9.08v3.8H287V48.2h10.12V52H282.64V31.72Z"/><path class="cls-2" d="M302,52V31.72h8.35a13,13,0,0,1,2.95.32,8.59,8.59,0,0,1,2.55,1.05,5,5,0,0,1,1.88,2.06,6.86,6.86,0,0,1,.69,3.19,5.82,5.82,0,0,1-4.44,6L320.05,52h-5l-5.48-7.11h-3.19V52Zm4.35-10.73h4.2a4,4,0,0,0,2.46-.72,2.91,2.91,0,0,0,0-4.33,4.06,4.06,0,0,0-2.47-.7h-4.2Z"/><circle class="cls-1" cx="39.77" cy="39.77" r="39.77"/><path class="cls-3" d="M60.14,55.78c-3.7-3.74-7.08-7.12-10.35-10.33a2.18,2.18,0,0,1-.48-2.9c3-5.89,2.7-11.55-.8-16.81a15.5,15.5,0,0,0-15.16-7.28,16.32,16.32,0,0,0-15,16.33A16.55,16.55,0,0,0,33,51.16a16.25,16.25,0,0,0,9.67-1.89l1.54-.81L47.74,52c2.68,2.68,5.34,5.34,8,8A3.09,3.09,0,0,0,59,61,2.94,2.94,0,0,0,61.07,59,3.3,3.3,0,0,0,60.14,55.78ZM35,48h-.07a13.26,13.26,0,0,1-9.44-3.85A13.22,13.22,0,0,1,34.79,21.6h0A13.21,13.21,0,0,1,35,48Z"/><path class="cls-3" d="M34.19,25.85a3.09,3.09,0,0,0-1.23.22,10.36,10.36,0,0,0-6.11,6.47,4.2,4.2,0,0,0-.12.48l0,.16v.06A1.52,1.52,0,0,0,28,34.81a1.87,1.87,0,0,0,.4,0,1.27,1.27,0,0,0,1.29-1,6.88,6.88,0,0,1,5.11-5,1.33,1.33,0,0,0,.93-1.62A1.48,1.48,0,0,0,34.19,25.85Z"/></g></g></svg>