<?xml version="1.0" encoding="utf-8"?>
<!-- Generator: Adobe Illustrator 21.0.0, SVG Export Plug-In . SVG Version: 6.00 Build 0)  -->
<svg version="1.1" id="Capa_1" xmlns="http://www.w3.org/2000/svg" xmlns:xlink="http://www.w3.org/1999/xlink" x="0px" y="0px"
	 viewBox="0 0 22.8 22.8" style="enable-background:new 0 0 22.8 22.8;" xml:space="preserve">
<style type="text/css">
	.st0{fill:#FFFFFF;stroke:#002F3A;stroke-width:0.75;stroke-miterlimit:10;}
</style>
<title>Mundo Granportuaria</title>
<g id="Capa_2">
	<g id="Demo_de_Servicios_-_sectores">
		<path class="st0" d="M11.3,0.2c6.1,0,11,4.9,11,11s-4.9,11-11,11s-11-4.9-11-11C0.3,5.1,5.2,0.2,11.3,0.2L11.3,0.2z M4.2,3.8
			c-2,1.8-3.1,4.3-3.2,7h4.5c0.2-1.2,0.3-2.3,0.4-3.4c0.1-0.7,0.6-1.6,0.3-2.2S5,4.2,4.4,3.8C4.3,3.8,4.2,3.8,4.2,3.8z M21.5,11.6
			h-4.4c-0.3,1.8-0.7,3.5-1,5.2c0,0.3,0.1,0.5,0.3,0.6c0.6,0.4,1.2,0.8,1.8,1.2C20.2,16.8,21.4,14.2,21.5,11.6z M17.1,10.8h4.4
			c-0.1-2.7-1.2-5.2-3.2-7c-0.7,0.4-1.3,0.7-1.8,1.1c-0.2,0.2-0.3,0.4-0.3,0.7C16.5,7.3,16.8,9,17.1,10.8z M4.2,18.6
			c0.1-0.1,0.3-0.2,0.4-0.3c1.4-0.6,2-1.5,1.4-3.1c-0.3-1.2-0.5-2.4-0.5-3.6H1C1.1,14.2,2.2,16.8,4.2,18.6z M11.6,10.8h4.7l-0.8-5.2
			l-3.9,0.8L11.6,10.8z M6.2,11.6L7,16.8l3.9-0.8v-4.5L6.2,11.6z M10.9,6.3L7,5.5l-0.8,5.3h4.7V6.3z M11.6,16l3.9,0.8l0.8-5.3h-4.6
			L11.6,16z M10.8,5.6V1C9.2,1.4,8.1,2.8,7.5,4.8L10.8,5.6z M11.7,5.6l4.1-0.5c-0.8-1.8-2.2-3.6-4.1-4.2L11.7,5.6z M10.9,21.4v-4.6
			l-3.4,0.8C8.2,19.3,8.9,20.8,10.9,21.4z M11.7,16.8v4.7c1.9-0.7,2.7-2.2,3.5-4L11.7,16.8z M4.6,3.1l2,1.3l1.8-3L8.3,1.2L4.6,3.1z
			 M17.9,19.2l-2-1.3l-1.8,3l0.1,0.2L17.9,19.2z M14.2,1.2L14,1.4l1.6,3.8l2.7-2.1L14.2,1.2z M4.6,19.2l3.7,1.9l0.1-0.2l-1.8-3
			L4.6,19.2z"/>
	</g>
</g>
</svg>
