<svg xmlns="http://www.w3.org/2000/svg" viewBox="0 0 190 186.64"><defs><style>.cls-1{fill:#fff;}</style></defs><title>Exp3</title><g id="Capa_2" data-name="Capa 2"><g id="Nosotros"><path class="cls-1" d="M190,84.49c0,15.36,0,30.72,0,46.08a5,5,0,0,1-2.54,4.73c-8.6,5.59-17.14,11.29-25.66,17q-17.05,11.42-34.06,22.9c-5.48,3.68-11,7.37-16.53,10.91a4,4,0,0,1-3.26.31c-8.16-3.89-16.25-7.94-24.35-11.94L54,159.9Q30,148.1,6,136.31c-.92-.45-1.9-.77-2.84-1.19C1.13,134.2,0,133,0,130.4.11,99.92.07,69.44.06,39c0-3.73.1-3.67,3.77-5C9.66,31.74,15.39,29.31,21.18,27c5.95-2.32,11.95-4.52,17.88-6.87,4.75-1.88,9.41-4,14.15-5.84C61.6,11,70,7.76,78.42,4.46,81.68,3.18,85,2,88.14.55S94,.76,96.72,1.68c5.67,1.89,11.26,4,16.88,6,5.18,1.87,10.36,3.76,15.55,5.63,6.6,2.37,13.21,4.7,19.8,7.1,9,3.28,18,6.63,27,9.92,3.43,1.26,6.87,2.51,10.34,3.65S190,35.34,190,38.89q0,22.8,0,45.6ZM14.84,45.23c0,1.43,0,2.38,0,3.33,0,23.93.06,47.85-.06,71.77,0,2.93.66,4.48,3.52,5.82,12,5.64,23.84,11.65,35.74,17.51q26,12.77,52,25.52c3.1,1.53,3.62,1.24,3.62-2.15q0-29.95,0-59.89,0-11.4,0-22.79c0-1.44-.16-2.45-1.93-3.07-6.45-2.3-12.82-4.85-19.2-7.36-10.31-4.07-20.58-8.23-30.9-12.28Q38.77,54.24,19.88,47C18.36,46.39,16.79,45.91,14.84,45.23ZM26,40.87c.72.68,1,1.2,1.49,1.38,7.42,2.9,14.85,5.75,22.28,8.63,6,2.34,12,4.7,18,7.05,5.64,2.2,11.28,4.38,16.91,6.59l23.41,9.2c3.15,1.24,6.14,2.45,9.57.32,3.84-2.39,8-4.26,12-6.42,2-1.07,3.89-2.26,6.22-3.63-1.52-.68-2.44-1.14-3.4-1.5-5.8-2.2-11.63-4.33-17.41-6.58Q98,49.23,80.84,42.45c-7.8-3.08-15.53-6.34-23.42-9.19-2.79-1-5.63-3.31-9-1.3a14.24,14.24,0,0,1-2.16,1Zm45.78-18a28.91,28.91,0,0,0,3,1.64c7.66,2.92,15.36,5.73,23,8.7,8.62,3.36,17.18,6.89,25.79,10.26,9,3.51,18,6.91,27,10.36,1.59.61,3.1,1.17,4.82.22,5.48-3,11-5.92,16.83-9a18.68,18.68,0,0,0-2.48-1.36C164.4,41.73,159,40,153.69,38c-10-3.69-20-7.52-30.08-11.2-8.75-3.21-17.57-6.23-26.31-9.46C93.51,15.94,90,14.91,86,17.08,81.73,19.34,77,20.77,71.81,22.85Z"/><path class="cls-1" d="M87.71,148.27c-4-1.91-7.36-3.53-10.72-5.12L49.15,130c-3.75-1.77-7.51-3.55-11.24-5.35-.39-.19-1-.59-1-.9-.08-2.68,0-5.36,0-8.49,5.68,2.65,10.85,5,16,7.48,10.94,5.16,21.85,10.36,32.81,15.46a2.92,2.92,0,0,1,2,3.13C87.63,143.4,87.71,145.49,87.71,148.27Z"/><path class="cls-1" d="M76.82,86.29l10.1,19.94-.37.58-6.17-1.36c0,3.46,0,6.58,0,9.7,0,3.31,0,6.62,0,9.92,0,1.71-.72,2.19-2.25,1.62-1.05-.39-2.11-.76-3.12-1.24a2.93,2.93,0,0,1-2-2.95c.08-5.64-.14-11.3,0-16.94.08-2.33-.88-3.38-2.87-3.93-.62-.17-1.28-.22-1.88-.43-2.17-.79-2.28-1.37-.85-3.17,2.78-3.47,5.5-7,8.26-10.47C75.94,87.26,76.2,87,76.82,86.29Z"/><path class="cls-1" d="M51.07,114.69a51.19,51.19,0,0,1-6.15-2.36c-.59-.31-.89-1.65-.9-2.52-.09-4.93-.2-9.86,0-14.79.1-2.5-1.14-3.38-3.15-4-1.2-.35-2.37-.8-4-1.35,2.25-3,4.2-5.54,6.17-8.1.63-.82,1.36-1.56,2-2.37,2.5-3.16,2.54-3.19,4.35.23,2.89,5.46,5.72,11,8.92,17.12-1.78-.49-3-.76-4.24-1.17-2.27-.77-3-.35-3,2C51,102.93,51.07,108.41,51.07,114.69Z"/></g></g></svg>