<svg xmlns="http://www.w3.org/2000/svg" viewBox="0 0 1175.39 7.32"><defs><style>.cls-1{fill:none;stroke:#f8bc00;stroke-miterlimit:10;stroke-width:2px;}</style></defs><title>Recurso 6</title><g id="Capa_2" data-name="Capa 2"><g id="Capa_1-2" data-name="Capa 1"><path class="cls-1" d="M0,6.32C4,6.32,7.32,1,11.3,1s7.32,5.32,11.3,5.32S29.92,1,33.91,1s7.32,5.32,11.3,5.32S52.52,1,56.51,1s7.32,5.32,11.3,5.32S75.13,1,79.11,1s7.32,5.32,11.3,5.32S97.73,1,101.72,1,109,6.32,113,6.32,120.33,1,124.32,1s7.32,5.32,11.3,5.32S142.94,1,146.92,1s7.32,5.32,11.3,5.32S165.54,1,169.53,1s7.32,5.32,11.3,5.32S188.15,1,192.13,1s7.32,5.32,11.3,5.32S210.75,1,214.74,1s7.32,5.32,11.3,5.32S233.35,1,237.34,1s7.32,5.32,11.3,5.32S256,1,259.94,1s7.32,5.32,11.3,5.32S278.56,1,282.55,1s7.32,5.32,11.3,5.32S301.16,1,305.15,1s7.32,5.32,11.3,5.32S323.77,1,327.75,1s7.32,5.32,11.3,5.32S346.37,1,350.36,1s7.32,5.32,11.3,5.32S369,1,373,1s7.32,5.32,11.3,5.32S391.58,1,395.56,1s7.32,5.32,11.3,5.32S414.18,1,418.17,1s7.32,5.32,11.3,5.32S436.79,1,440.77,1s7.32,5.32,11.3,5.32S459.39,1,463.38,1s7.32,5.32,11.3,5.32S482,1,486,1s7.32,5.32,11.3,5.32S504.6,1,508.58,1s7.32,5.32,11.3,5.32S527.2,1,531.19,1s7.32,5.32,11.3,5.32S549.8,1,553.79,1s7.32,5.32,11.3,5.32S572.41,1,576.39,1s7.32,5.32,11.3,5.32S595,1,599,1s7.32,5.32,11.3,5.32S617.62,1,621.6,1s7.32,5.32,11.3,5.32S640.22,1,644.21,1s7.32,5.32,11.3,5.32S662.82,1,666.81,1s7.32,5.32,11.3,5.32S685.43,1,689.41,1s7.32,5.32,11.3,5.32S708,1,712,1s7.32,5.32,11.3,5.32S730.63,1,734.62,1s7.32,5.32,11.3,5.32S753.24,1,757.22,1s7.32,5.32,11.3,5.32S775.84,1,779.83,1s7.32,5.32,11.3,5.32S798.44,1,802.43,1s7.32,5.32,11.3,5.32S821,1,825,1s7.32,5.32,11.3,5.32S843.65,1,847.64,1s7.32,5.32,11.3,5.32S866.26,1,870.24,1s7.32,5.32,11.3,5.32S888.86,1,892.85,1s7.32,5.32,11.3,5.32S911.46,1,915.45,1s7.32,5.32,11.3,5.32S934.07,1,938.05,1s7.32,5.32,11.3,5.32S956.67,1,960.66,1,968,6.32,972,6.32,979.27,1,983.26,1s7.32,5.32,11.3,5.32S1001.88,1,1005.86,1s7.32,5.32,11.3,5.32S1024.48,1,1028.47,1s7.32,5.32,11.3,5.32S1047.09,1,1051.07,1s7.32,5.32,11.3,5.32S1069.69,1,1073.68,1,1081,6.32,1085,6.32,1092.29,1,1096.28,1s7.32,5.32,11.3,5.32S1114.9,1,1118.88,1s7.32,5.32,11.3,5.32S1137.5,1,1141.49,1s7.32,5.32,11.3,5.32S1160.1,1,1164.09,1s7.32,5.32,11.3,5.32"/></g></g></svg>