<svg xmlns="http://www.w3.org/2000/svg" viewBox="0 0 22.75 22.75"><defs><style>.cls-1{fill:#fff;stroke:#fff;stroke-miterlimit:10;stroke-width:0.75px;}</style></defs><title>Mundo Granportuaria</title><g id="Capa_2" data-name="Capa 2"><g id="Demo_de_Servicios_-_sectores" data-name="Demo de Servicios - sectores"><path class="cls-1" d="M11.38.38a11,11,0,1,1-11,11A11,11,0,0,1,11.38.38ZM4.28,4a9.92,9.92,0,0,0-3.16,7H5.61c.15-1.19.28-2.32.45-3.44.11-.74.58-1.62.32-2.16S5.14,4.44,4.47,4A1,1,0,0,0,4.28,4ZM21.65,11.8h-4.4c-.33,1.77-.67,3.48-1,5.2a.82.82,0,0,0,.3.65c.58.41,1.2.76,1.85,1.16A10.21,10.21,0,0,0,21.65,11.8ZM17.23,11h4.41a10,10,0,0,0-3.21-7c-.65.4-1.25.73-1.8,1.14a.92.92,0,0,0-.32.72C16.58,7.52,16.91,9.2,17.23,11ZM4.33,18.81a4,4,0,0,1,.42-.27c1.42-.63,2-1.49,1.37-3.15a15.62,15.62,0,0,1-.52-3.62H1.12A10,10,0,0,0,4.33,18.81ZM11.76,11h4.68l-.83-5.24-3.86.81Zm-5.46.82L7.13,17,11,16.24V11.77ZM11,6.51l-3.88-.8L6.35,11H11Zm.76,9.72,3.86.8.79-5.26H11.77ZM10.95,5.78V1.18C9.36,1.66,8.23,3,7.59,5.05Zm.82,0L15.26,5c-.81-1.78-1.57-3.31-3.49-3.91ZM11,21.65V17l-3.45.76C8.27,19.49,9,21,11,21.65ZM11.79,17v4.68c1.94-.69,2.7-2.2,3.47-3.95ZM4.71,3.32l2,1.28,1.81-3-.14-.18ZM18,19.43l-2-1.29-1.83,3,.1.19Zm-3.7-18-.15.19,1.83,3L18,3.3Zm-9.63,18,3.74,1.91.1-.19-1.81-3Z"/></g></g></svg>