<svg xmlns="http://www.w3.org/2000/svg" viewBox="0 0 146.55 119.47"><defs><style>.cls-1{fill:#606060;}</style></defs><title>Twitter</title><g id="Capa_2" data-name="Capa 2"><g id="Home"><path class="cls-1" d="M.09,106a61.21,61.21,0,0,0,44-12.48c-13.82-1.16-23-8.07-28.15-21a31.81,31.81,0,0,0,13.5-.61A30.21,30.21,0,0,1,12.11,61.21,29.66,29.66,0,0,1,5.5,42,31.48,31.48,0,0,0,19,45.7C12.45,40.92,8.21,34.93,6.51,27.31A30,30,0,0,1,9.79,5.54C26.12,24.73,46.73,35.28,71.89,37c-.19-1.87-.41-3.56-.53-5.27a27.92,27.92,0,0,1,5-18.47c7-9.93,16.72-14.38,28.85-13.07a28.37,28.37,0,0,1,17.07,8.19,2.36,2.36,0,0,0,2.51.74,61.23,61.23,0,0,0,16-6.09c.45-.25.92-.47,1.61-.83a27.47,27.47,0,0,1-4.92,9.33,34.16,34.16,0,0,1-7.57,7,55.59,55.59,0,0,0,16.23-4.3l.3.38c-2.45,2.85-4.77,5.81-7.38,8.5-2.09,2.16-4.53,4-6.76,6a2.22,2.22,0,0,0-.7,1.49,87.09,87.09,0,0,1-10.29,43.61c-9.23,17.47-22.69,30.51-40.94,38.38a86.55,86.55,0,0,1-38.11,6.78,84.08,84.08,0,0,1-31.91-7.57c-3.57-1.63-7-3.61-10.46-5.42Z"/></g></g></svg>